<svg width="785" height="612" viewBox="0 0 785 612" fill="none" xmlns="http://www.w3.org/2000/svg">
<mask id="mask0_218_5048" style="mask-type:luminance" maskUnits="userSpaceOnUse" x="0" y="0" width="797" height="612">
<path d="M797 0H0V611.161H797V0Z" fill="white"/>
</mask>
<g mask="url(#mask0_218_5048)">
<path d="M142.397 405.811C142.397 405.811 157.169 406.3 160.569 427.813C164.076 449.326 149.199 447.737 149.199 447.737L142.397 405.811Z" fill="#FA8861"/>
<path d="M131.239 365.474C132.94 365.352 134.321 366.697 134.64 368.53L159.187 486.607C159.4 488.073 154.724 490.029 153.662 490.885L152.386 491.862C150.367 493.452 147.711 492.107 147.392 489.296L142.079 446.881C141.228 446.392 140.485 445.414 140.378 444.07L128.158 369.63C128.051 367.552 129.433 365.597 131.239 365.474Z" fill="#50ADA7"/>
<path d="M128.264 361.441L85.8636 377.209L66.7356 366.085C66.7356 366.085 79.8064 481.595 80.7628 481.962C81.8255 482.328 125.395 500.174 125.395 500.174L153.343 488.44L128.264 361.441Z" fill="white"/>
<path d="M54.9399 365.474L66.523 365.719L90.433 453.848L76.1933 449.203L54.9399 365.474Z" fill="#FFEEE8"/>
<path d="M75.1306 437.469L55.6838 365.719C55.1525 363.885 53.5585 362.785 51.9645 363.152C50.0517 363.519 48.989 365.719 49.4141 367.797L67.7982 440.769C68.4358 443.458 71.305 444.436 73.1115 442.603L74.1742 441.503C75.1306 440.403 75.4494 438.936 75.1306 437.469Z" fill="#50ADA7"/>
<path d="M155.893 440.892C155.893 440.892 145.904 439.792 138.891 431.48C131.877 423.168 129.114 429.646 131.877 437.347C134.64 445.17 139.847 458.493 149.092 459.838C158.444 461.304 156.637 441.747 155.893 440.892Z" fill="#FA8861"/>
<path d="M143.141 534.766C144.735 576.447 161.525 679 161.525 679C161.525 679 241.332 657.365 311.361 604.683C311.361 604.683 321.138 484.895 289.577 408.622C282.244 390.899 270.236 367.063 260.035 362.419C219.972 344.45 138.147 404.589 143.141 534.766Z" fill="#FFCC6B"/>
<path d="M106.054 455.682C106.054 455.682 101.591 444.192 97.1279 435.513C92.6647 426.835 88.8391 420.846 87.6702 423.046C86.6075 425.246 92.4522 451.037 96.384 464.116C100.316 477.317 107.967 479.028 106.054 455.682Z" fill="#FA8861"/>
<path d="M237.825 561.902C233.574 568.747 228.367 574.736 222.416 579.625C222.416 579.625 222.31 579.625 222.31 579.747C201.163 597.104 180.228 598.938 161.313 592.949C133.046 583.903 109.03 557.012 94.5774 537.455L130.496 471.939L172.365 497.241C172.365 497.241 195.743 348.362 259.503 391.388C315.612 429.157 257.059 531.466 237.825 561.902Z" fill="#FFCC6B"/>
<path d="M130.496 471.816L94.5774 537.333C94.2586 536.966 94.0461 536.599 93.8336 536.233C85.226 524.376 80.2314 515.453 80.2314 515.453C80.2314 515.453 62.2724 498.708 55.2588 479.395C48.2452 460.082 54.4086 460.938 54.4086 460.938C46.7574 436.858 56.534 439.303 56.534 439.303C50.2642 408.745 60.6784 411.189 60.6784 411.189C73.9617 443.336 100.422 453.726 100.422 453.726L129.858 471.45L130.496 471.816Z" fill="#FA8861"/>
<path d="M92.452 456.415C92.452 456.415 84.6945 440.525 84.3757 429.891C84.0569 420.601 87.1386 418.645 93.5146 426.468C99.8906 434.291 97.659 436.125 108.604 445.903C119.55 455.559 115.406 472.916 114.98 474.017C114.555 475.117 92.452 456.415 92.452 456.415Z" fill="#FA8861"/>
<path d="M54.94 474.628C54.94 474.628 50.9018 480.984 56.7465 492.351C62.5912 503.719 78.3186 515.575 80.3377 515.698C82.2505 515.575 54.94 474.628 54.94 474.628Z" fill="#FA8861"/>
<path d="M56.5339 439.303C56.5339 439.303 57.3841 445.659 65.0353 456.171" stroke="#4C2D1D" stroke-miterlimit="10" stroke-linecap="round"/>
<path d="M54.5149 460.938C54.5149 460.938 58.7656 466.316 63.0162 472.916" stroke="#4C2D1D" stroke-miterlimit="10" stroke-linecap="round"/>
<path d="M54.0898 476.461C54.5149 477.195 61.316 488.195 61.316 488.195" stroke="#4C2D1D" stroke-miterlimit="10" stroke-linecap="round"/>
<path d="M87.4575 445.292C88.0951 445.781 92.3458 457.515 92.452 456.415" stroke="#4C2D1D" stroke-miterlimit="10" stroke-linecap="round"/>
<path d="M85.8635 377.209L104.779 441.136" stroke="#FAD5C9" stroke-miterlimit="10"/>
<path d="M203.288 375.253C223.691 375.864 252.49 368.164 262.585 364.619L235.806 306.07L214.659 328.194C214.659 328.194 219.016 356.063 214.552 364.374C211.364 370.364 207.326 371.831 203.288 375.253Z" fill="#FA8861"/>
<path d="M164.288 311.814C164.182 318.293 164.926 324.16 166.307 329.416C168.114 336.261 170.877 342.25 174.384 348.117C176.615 351.907 179.059 355.574 181.716 359.363C189.58 370.608 206.157 364.008 216.572 358.018C222.097 354.84 225.923 351.907 225.923 351.907C225.923 351.907 242.076 364.008 238.25 321.593C238.037 319.393 237.825 316.948 237.506 314.504C237.4 313.526 237.294 312.548 237.081 311.57C236.868 310.103 236.656 308.759 236.337 307.414C235.7 303.869 234.956 300.691 233.999 297.636C230.492 285.901 209.877 266.589 204.776 265.977C202.226 265.611 199.569 265.733 196.912 266.1C190.217 267.077 183.523 270.378 177.465 275.634C169.495 282.479 165.457 294.091 164.501 306.558C164.395 308.392 164.288 310.103 164.288 311.814Z" fill="#FA8861"/>
<path d="M174.596 347.995C174.596 347.995 170.133 352.029 168.008 349.584C167.051 348.484 168.008 340.417 166.626 331.738C165.032 321.349 164.288 310.592 164.288 310.592C164.288 310.592 173.215 328.438 174.596 347.995Z" fill="#FA8861"/>
<path d="M171.833 334.183C172.896 336.994 174.809 338.828 176.19 338.217C177.572 337.606 177.784 334.672 176.722 331.861" stroke="#4C2D1D" stroke-miterlimit="10" stroke-linecap="round"/>
<path d="M174.702 320.982C177.04 321.349 178.847 322.938 178.741 324.527C178.528 326.238 176.509 327.216 174.065 326.971C171.727 326.605 169.92 325.016 170.027 323.427C170.345 321.715 172.365 320.615 174.702 320.982Z" fill="#693E28"/>
<path d="M181.716 354.718C181.716 354.718 185.542 353.373 185.435 348.362" stroke="#4C2D1D" stroke-miterlimit="10" stroke-linecap="round"/>
<path d="M218.803 325.505C218.803 325.505 219.016 331.005 212.746 334.55" stroke="#4C2D1D" stroke-miterlimit="10" stroke-linecap="round"/>
<path d="M213.065 325.382C213.065 325.382 210.196 313.403 204.138 318.782" stroke="#4C2D1D" stroke-miterlimit="10" stroke-linecap="round"/>
<path d="M180.972 292.746C180.972 292.746 177.147 317.315 198.719 318.659" stroke="#693E28" stroke-miterlimit="10" stroke-linecap="round"/>
<path d="M215.721 358.385L224.329 350.684C224.329 350.684 225.498 367.063 211.577 368.53C211.577 368.53 216.784 362.785 215.721 358.385Z" fill="#4C2D1D"/>
<path d="M95.5339 372.808L111.155 425.002L105.842 420.479L103.079 427.568L88.9453 375.62L95.5339 372.808Z" fill="#D9513F"/>
<path d="M212.215 364.008C212.215 364.008 244.52 362.907 258.653 352.396L268.217 366.819C268.217 366.819 232.512 382.954 197.444 378.92L212.215 364.008Z" fill="white"/>
<path d="M136.872 473.528L122.632 464.482C122.632 464.482 81.9318 528.654 82.7819 528.654C83.6321 528.654 98.7219 549.434 98.7219 549.434L136.872 473.528Z" fill="white"/>
<path d="M121.888 466.316L172.365 497.118C172.365 497.118 172.152 472.55 185.86 441.87" stroke="#4C2D1D" stroke-miterlimit="10" stroke-linecap="round"/>
<path d="M148.773 586.837C148.773 586.837 177.147 617.028 209.983 597.349C242.926 577.67 254.509 502.008 254.509 502.008" stroke="#4C2D1D" stroke-miterlimit="10" stroke-linecap="round"/>
<path d="M172.471 497.119C172.471 497.119 170.452 506.897 176.722 515.942" stroke="#4C2D1D" stroke-miterlimit="10" stroke-linecap="round"/>
<path d="M171.09 290.913C170.558 291.157 163.12 317.07 189.049 318.537" stroke="#693E28" stroke-miterlimit="10" stroke-linecap="round"/>
<path d="M165.457 285.412C165.457 285.412 179.91 289.935 169.07 291.279C158.231 292.624 156.637 306.681 170.983 295.191C170.983 295.191 175.128 317.804 186.286 317.804C186.286 317.804 194.681 325.26 196.7 330.516C198.825 329.171 199.782 326.482 199.356 323.793C198.825 320.248 199.144 315.115 204.457 312.059C213.384 306.681 219.122 325.871 219.122 325.871C219.122 325.871 231.555 328.805 242.926 321.471C242.926 321.471 243.776 277.956 221.779 263.288C199.782 248.498 166.626 261.821 165.457 285.412Z" fill="#693E28"/>
<path d="M177.465 275.511C177.465 275.511 133.577 285.168 165.032 321.104C165.032 321.104 161.313 303.503 171.196 297.391C181.079 291.402 177.465 275.511 177.465 275.511Z" fill="#693E28"/>
<path d="M179.272 331.127C183.097 335.527 183.948 341.884 181.078 345.306C178.209 348.606 172.683 347.751 168.751 343.228C164.926 338.828 164.076 332.472 166.945 329.049C169.814 325.627 175.34 326.727 179.272 331.127Z" stroke="#4C2D1D" stroke-miterlimit="10" stroke-linecap="round"/>
<path d="M214.127 311.448C214.127 311.448 206.582 307.659 201.588 312.792C196.487 317.926 180.866 332.227 180.866 332.227" stroke="#4C2D1D" stroke-miterlimit="10" stroke-linecap="round"/>
</g>
<mask id="mask1_218_5048" style="mask-type:luminance" maskUnits="userSpaceOnUse" x="0" y="0" width="797" height="612">
<path d="M797 0H0V611.161H797V0Z" fill="white"/>
</mask>
<g mask="url(#mask1_218_5048)">
<path d="M611.651 305.341C622.554 301.57 628.734 288.345 625.455 275.804C622.176 263.263 610.679 256.154 599.776 259.926C588.873 263.698 582.693 276.922 585.972 289.463C589.251 302.004 600.748 309.113 611.651 305.341Z" fill="#693E28"/>
<path d="M504.66 480.862C531.652 449.448 561.513 575.469 645.039 559.212L678.725 627.785L481.069 659.687C481.176 659.687 457.691 535.499 504.66 480.862Z" fill="#E66250"/>
<path d="M590.205 277.467C587.867 287.857 593.393 298.369 602.426 301.058C611.459 303.747 620.598 297.391 622.935 287.001C625.273 276.612 619.747 266.1 610.715 263.41C601.682 260.844 592.543 267.077 590.205 277.467Z" fill="#693E28"/>
<path d="M615.497 274.411C614.115 280.523 617.303 286.634 622.617 288.224C627.93 289.813 633.243 286.146 634.625 280.034C636.006 273.922 632.818 267.811 627.505 266.222C622.192 264.755 616.878 268.422 615.497 274.411Z" fill="#693E28"/>
<path d="M611.034 281.867C609.971 286.879 605.508 289.813 601.151 288.59C596.794 287.368 594.244 282.234 595.306 277.223C596.369 272.211 600.832 269.278 605.189 270.5C609.546 271.722 612.096 276.856 611.034 281.867Z" fill="#693E28"/>
<path d="M632.5 296.413C631.012 303.136 634.519 310.103 640.47 311.814C646.314 313.526 652.371 309.492 653.859 302.647C655.347 295.924 651.84 288.957 645.889 287.246C639.938 285.534 633.987 289.568 632.5 296.413Z" fill="#693E28"/>
<path d="M627.399 282.112C626.336 287.124 628.886 292.135 633.243 293.48C637.6 294.702 641.957 291.768 643.126 286.757C644.189 281.745 641.638 276.734 637.281 275.389C632.818 274.045 628.461 277.1 627.399 282.112Z" fill="#693E28"/>
<path d="M483.301 508.119L503.917 478.295C503.917 478.295 515.5 393.954 515.287 392.121C515.181 390.165 605.508 379.164 684.039 441.381L647.589 521.32L644.933 558.846C644.933 558.846 552.693 583.292 483.301 508.119Z" fill="#FFCC6B"/>
<path d="M503.385 481.595L537.497 338.828C537.497 338.828 604.02 329.905 677.238 391.632L635.9 518.387C635.9 518.387 580.429 519.487 503.385 481.595Z" fill="#FFCC6B"/>
<path d="M638.875 312.181C634.625 331.494 620.066 343.961 606.464 340.05C592.862 336.016 585.211 317.193 589.461 297.758C589.78 296.291 590.205 294.946 590.63 293.602V293.48C593.287 285.046 600.513 279.667 608.271 279.79C616.453 279.912 625.911 282.479 635.262 290.668C638.344 293.357 640.044 297.635 640.044 302.036V302.158C640.044 305.336 639.619 308.759 638.875 312.181Z" fill="#FA8861"/>
<path d="M592.756 301.547C593.393 307.414 590.418 312.67 586.167 313.281C581.81 313.892 577.772 309.736 577.134 303.869C576.497 298.002 579.472 292.746 583.723 292.135C587.974 291.524 592.012 295.68 592.756 301.547Z" fill="#FA8861"/>
<path d="M582.235 298.491C582.235 298.491 586.061 294.58 588.292 300.691" stroke="#693E28" stroke-miterlimit="10" stroke-linecap="round"/>
<path d="M634.093 314.87C631.118 319.637 631.543 325.871 635.05 328.805C638.556 331.738 643.87 330.271 646.845 325.504C649.821 320.737 649.396 314.503 645.889 311.57C642.382 308.636 637.069 310.103 634.093 314.87Z" fill="#FA8861"/>
<path d="M644.614 318.048C644.614 318.048 642.913 312.425 638.45 316.581" stroke="#693E28" stroke-miterlimit="10" stroke-linecap="round"/>
<path d="M614.115 308.881C614.115 308.881 614.859 313.77 613.796 316.826C613.584 317.559 612.627 319.148 609.439 317.07" stroke="#693E28" stroke-miterlimit="10" stroke-linecap="round"/>
<path d="M604.445 321.226C604.445 321.226 608.058 330.027 616.347 323.549" stroke="#693E28" stroke-miterlimit="10" stroke-linecap="round"/>
<path d="M599.557 305.703C599.769 303.869 600.832 302.402 602.001 302.647C603.17 302.769 603.807 304.48 603.595 306.436" stroke="#693E28" stroke-miterlimit="10" stroke-linecap="round"/>
<path d="M622.935 312.426C623.254 310.592 624.423 309.248 625.486 309.492C626.655 309.736 627.292 311.448 626.973 313.281" stroke="#693E28" stroke-miterlimit="10" stroke-linecap="round"/>
<path d="M628.78 302.891C628.249 304.114 626.123 303.991 624.104 302.769C622.085 301.547 620.916 299.469 621.554 298.247C622.085 297.024 624.21 297.146 626.23 298.369C628.142 299.713 629.311 301.669 628.78 302.891Z" fill="#693E28"/>
<path d="M606.145 295.191C606.039 296.535 604.126 297.513 601.788 297.269C599.557 297.024 597.75 295.802 597.857 294.457C597.963 293.113 599.876 292.135 602.213 292.379C604.445 292.502 606.252 293.724 606.145 295.191Z" fill="#693E28"/>
<path d="M600.407 351.418L533.459 413.756L528.146 410.334L483.514 407.522L481.388 405.566C495.84 392.977 507.742 374.52 516.137 358.629C518.369 354.473 521.238 350.195 524.851 346.284C532.29 338.217 542.385 331.494 554.606 331.127C560.557 330.883 566.933 332.105 573.734 335.283C573.84 335.283 573.946 335.405 574.053 335.527L600.407 351.418Z" fill="#FFCC6B"/>
<path d="M694.665 443.581L638.769 441.869L638.875 358.629L651.734 359.485C675.75 361.196 694.559 384.054 694.559 411.678L694.665 443.581Z" fill="#FA8861"/>
<path d="M698.491 411.8L701.041 443.703L694.665 444.559L689.352 445.292C677.45 446.881 665.336 446.637 653.434 444.436L638.875 441.747L633.775 441.625L622.085 358.263L644.72 357.285C656.941 356.796 668.417 361.196 677.663 369.019C686.058 376.231 692.54 386.254 696.047 397.988C697.322 402.388 698.172 407.033 698.491 411.8Z" fill="#FFCC6B"/>
<path d="M596.369 327.46C596.369 327.46 595.944 341.761 580.96 339.194C580.96 339.194 597.856 372.319 632.606 357.774C632.606 357.774 615.815 349.951 621.554 335.038L596.369 327.46Z" fill="#FA8861"/>
<path d="M595.519 331.983C595.519 331.983 605.826 344.695 620.81 338.339C620.81 338.339 613.053 350.195 604.764 346.528C596.475 342.861 595.519 331.983 595.519 331.983Z" fill="#693E28"/>
<path d="M590.205 294.946C590.205 294.946 598.813 295.435 603.489 283.334C603.489 283.334 614.434 291.035 621.448 281.379C628.461 271.722 587.974 265.855 590.205 294.946Z" fill="#693E28"/>
<path d="M620.066 279.301C620.066 279.301 618.578 292.868 635.369 299.958C635.369 299.958 631.437 306.192 639.194 310.47C639.194 310.47 648.864 290.302 633.031 281.012C617.091 271.844 620.066 279.301 620.066 279.301Z" fill="#693E28"/>
<path d="M621.873 279.056C621.873 279.056 615.816 297.635 600.938 283.701" stroke="#693E28" stroke-miterlimit="10" stroke-linecap="round"/>
<path d="M638.769 441.87L640.257 426.468" stroke="#693E28" stroke-miterlimit="10" stroke-linecap="round"/>
<path d="M645.783 421.946L584.786 524.01C583.723 525.721 581.704 526.21 580.216 524.987L514.331 472.916C511.78 470.961 509.974 467.905 509.23 464.605L508.805 462.893C508.274 460.693 508.699 458.371 509.761 456.537L570.971 354.107C571.927 352.518 573.84 352.151 575.222 353.251L642.488 406.422C643.976 407.644 644.401 409.967 643.339 411.678L641.745 414.367L644.933 416.812C645.039 416.812 645.145 416.934 645.145 417.056C646.42 418.156 646.739 420.234 645.783 421.946Z" fill="#92DED7"/>
<path d="M586.486 375.008L523.789 480.373L514.331 472.916C511.78 470.961 509.974 467.905 509.23 464.605L508.805 462.893C508.274 460.693 508.699 458.371 509.761 456.537L570.971 354.107C571.927 352.518 573.84 352.029 575.222 353.251L585.636 361.441L587.123 372.075C587.336 372.931 587.123 374.031 586.486 375.008Z" fill="#693E28"/>
<path d="M644.082 412.167C643.976 411.189 643.445 410.211 642.701 409.6L576.284 357.04C575.328 356.307 574.159 357.285 574.478 358.507L574.69 359.363C575.009 360.707 575.753 361.93 576.709 362.663L641.744 414.123L643.232 415.345L644.826 416.69C644.932 416.69 644.932 416.812 645.039 416.934L644.082 412.167Z" fill="white"/>
<path d="M605.614 459.96L568.314 430.502C567.57 429.891 567.358 428.668 567.889 427.691L582.341 404.589C582.873 403.733 583.935 403.489 584.786 404.1L622.085 433.558C622.829 434.169 623.042 435.391 622.51 436.369L608.058 459.471C607.527 460.327 606.464 460.571 605.614 459.96Z" stroke="#50ADA7" stroke-miterlimit="10" stroke-linecap="round"/>
<path d="M596.688 474.994L559.388 445.536C558.644 444.925 558.432 443.703 558.963 442.725L561.513 438.325C562.045 437.469 563.107 437.225 563.957 437.836L601.257 467.294C602.001 467.905 602.213 469.127 601.682 470.105L599.132 474.505C598.494 475.361 597.431 475.606 596.688 474.994Z" stroke="#50ADA7" stroke-miterlimit="10" stroke-linecap="round"/>
<path d="M571.29 425.979L546.849 453.97L600.726 519.242C607.102 525.721 614.328 530.488 621.979 533.421C626.867 535.255 631.756 536.355 636.644 536.844C654.072 538.188 671.287 530.488 683.614 516.064L683.72 515.942C690.734 507.753 694.878 496.874 695.728 485.384L698.81 444.314C698.81 444.314 677.025 429.646 640.682 443.825C636.431 445.536 636.325 456.537 636.325 456.537L571.29 425.979Z" fill="#FA8861"/>
<path d="M561.62 472.305C561.62 472.305 540.366 460.449 534.522 452.748C530.271 447.125 526.87 433.435 526.233 428.791C526.02 427.079 528.464 425.857 528.464 425.857C528.464 425.857 526.658 421.09 531.227 418.523C531.227 418.523 528.146 413.267 534.522 409.6C534.522 409.6 533.778 407.155 534.628 404.344C535.584 400.799 539.622 399.944 541.854 402.633L557.794 418.523C557.794 418.523 555.988 406.667 559.919 398.11C561.513 394.688 564.808 394.077 565.02 396.155C567.571 418.279 577.878 423.535 577.878 423.535C579.472 425.124 584.254 432.824 584.042 435.269L581.81 446.392L561.62 472.305Z" fill="#FA8861"/>
<path d="M557.688 418.645L560.026 421.457" stroke="#693E28" stroke-miterlimit="10" stroke-linecap="round"/>
<path d="M534.203 409.845C534.522 410.334 541.11 419.745 541.11 419.745" stroke="#693E28" stroke-miterlimit="10" stroke-linecap="round"/>
<path d="M531.333 418.768L536.222 427.446" stroke="#693E28" stroke-miterlimit="10" stroke-linecap="round"/>
<path d="M528.677 426.101L531.546 432.824" stroke="#693E28" stroke-miterlimit="10" stroke-linecap="round"/>
<path d="M651.202 469.616C651.202 469.616 640.576 458.371 636.75 457.026" stroke="#693E28" stroke-miterlimit="10" stroke-linecap="round"/>
<path d="M647.058 508.486C639.194 514.72 635.581 525.598 636.644 536.844C654.072 538.188 671.287 530.488 683.614 516.064C673.731 503.23 658.11 499.685 647.058 508.486Z" fill="#F77C52"/>
<path d="M610.429 312.529C614.287 307.532 613.893 299.883 609.549 295.446C605.204 291.008 598.555 291.461 594.697 296.458C590.839 301.455 591.233 309.104 595.578 313.541C599.922 317.979 606.571 317.526 610.429 312.529Z" stroke="#FFEEE8" stroke-miterlimit="10"/>
<path d="M618.791 314.87C619.428 321.471 624.635 326.238 630.374 325.382C636.112 324.649 640.257 318.659 639.513 312.059C638.875 305.458 633.668 300.691 627.93 301.547C622.191 302.28 618.047 308.27 618.791 314.87Z" stroke="#FFEEE8" stroke-miterlimit="10"/>
<path d="M585.848 291.891C585.848 291.891 590.311 293.602 593.499 297.758" stroke="#FFEEE8" stroke-miterlimit="10" stroke-linecap="round"/>
<path d="M613.159 305.703C613.159 305.703 618.259 305.092 619.535 308.881" stroke="#FFEEE8" stroke-miterlimit="10"/>
<path d="M642.595 290.179C642.595 290.179 648.121 266.588 626.867 263.655C626.867 263.655 620.385 245.32 611.777 262.921C603.701 279.423 634.2 293.724 642.595 290.179Z" fill="#693E28"/>
<path d="M674.581 367.186C674.581 367.186 683.401 401.655 680.532 437.102" stroke="white" stroke-miterlimit="10" stroke-linecap="round"/>
<path d="M530.058 485.629C530.058 485.629 517.306 498.463 518.581 518.509L528.145 510.075L533.246 519.242C533.246 519.242 537.391 503.474 544.085 496.263L530.058 485.629Z" fill="#D9513F"/>
<path d="M622.935 253.632C622.935 253.632 628.78 257.665 626.442 265.855C626.442 265.855 629.099 260.844 636.644 261.332" stroke="#693E28" stroke-miterlimit="10" stroke-linecap="round"/>
<path d="M553.331 582.559L564.701 593.071L577.984 655.165" stroke="#693E28" stroke-miterlimit="10" stroke-linecap="round"/>
</g>
<mask id="mask2_218_5048" style="mask-type:luminance" maskUnits="userSpaceOnUse" x="0" y="0" width="797" height="612">
<path d="M797 0H0V611.161H797V0Z" fill="white"/>
</mask>
<g mask="url(#mask2_218_5048)">
<path d="M382.773 278.69C395.86 278.69 406.47 265.72 406.47 249.72C406.47 233.721 395.86 220.751 382.773 220.751C369.685 220.751 359.075 233.721 359.075 249.72C359.075 265.72 369.685 278.69 382.773 278.69Z" fill="#693E28"/>
<path d="M406.47 276.489C419.558 276.489 430.167 263.519 430.167 247.52C430.167 231.521 419.558 218.551 406.47 218.551C393.382 218.551 382.772 231.521 382.772 247.52C382.772 263.519 393.382 276.489 406.47 276.489Z" fill="#693E28"/>
<path d="M288.62 636.708C288.62 636.708 286.176 571.069 328.258 505.553L460.878 496.996C460.878 496.996 503.066 522.665 510.505 652.476L288.62 636.708Z" fill="#693E28"/>
<path d="M382.985 276.123C393.373 276.123 401.794 266.436 401.794 254.488C401.794 242.539 393.373 232.852 382.985 232.852C372.597 232.852 364.176 242.539 364.176 254.488C364.176 266.436 372.597 276.123 382.985 276.123Z" fill="#693E28"/>
<path d="M401.794 255.954C407.898 255.954 412.846 250.263 412.846 243.242C412.846 236.221 407.898 230.53 401.794 230.53C395.691 230.53 390.743 236.221 390.743 243.242C390.743 250.263 395.691 255.954 401.794 255.954Z" fill="#693E28"/>
<path d="M385.323 297.636C385.323 304.725 380.329 310.47 374.165 310.47C368.002 310.47 363.007 304.725 363.007 297.636C363.007 290.546 368.002 284.801 374.165 284.801C380.329 284.801 385.323 290.546 385.323 297.636Z" fill="#693E28"/>
<path d="M379.903 327.827C386.711 327.827 392.23 321.479 392.23 313.648C392.23 305.817 386.711 299.469 379.903 299.469C373.095 299.469 367.576 305.817 367.576 313.648C367.576 321.479 373.095 327.827 379.903 327.827Z" fill="#693E28"/>
<path d="M365.239 279.423C372.047 279.423 377.565 273.075 377.565 265.244C377.565 257.413 372.047 251.065 365.239 251.065C358.431 251.065 352.912 257.413 352.912 265.244C352.912 273.075 358.431 279.423 365.239 279.423Z" fill="#693E28"/>
<path d="M387.661 252.654C387.661 258.399 383.623 263.044 378.628 263.044C373.634 263.044 369.595 258.399 369.595 252.654C369.595 246.909 373.634 242.264 378.628 242.264C383.623 242.264 387.661 246.909 387.661 252.654Z" fill="#693E28"/>
<path d="M414.44 261.577C414.44 269.4 419.966 275.756 426.767 275.756C433.568 275.756 439.094 269.4 439.094 261.577C439.094 253.754 433.568 247.398 426.767 247.398C419.966 247.398 414.44 253.754 414.44 261.577Z" fill="#693E28"/>
<path d="M420.905 255.074C424.433 251.017 424.433 244.438 420.905 240.381C417.378 236.324 411.659 236.324 408.131 240.381C404.604 244.438 404.604 251.017 408.131 255.074C411.659 259.132 417.378 259.132 420.905 255.074Z" fill="#693E28"/>
<path d="M303.498 538.188L318.694 499.319C318.694 499.319 311.042 404.344 310.405 402.388C309.767 400.311 404.982 359.852 504.979 402.388L484.682 500.541L490.739 541.978C490.739 541.978 396.693 597.593 303.498 538.188Z" fill="#E66250"/>
<path d="M318.906 503.108L321.669 337.605C321.669 337.605 391.593 306.925 485.745 350.44L471.293 500.908C471.293 500.908 411.358 519.731 318.906 503.108Z" fill="#E66250"/>
<path d="M425.067 276.734C425.067 299.102 412.315 317.193 396.587 317.193C380.86 317.193 368.108 299.102 368.108 276.734C368.108 275.023 368.214 273.434 368.32 271.844V271.722C369.17 261.821 375.653 253.632 384.154 251.309C392.974 248.865 403.92 248.62 416.034 254.488C419.966 256.443 422.835 260.477 423.898 265.244V265.366C424.748 268.911 425.067 272.7 425.067 276.734Z" fill="#FA8861"/>
<path d="M372.571 279.79C374.696 285.901 372.783 292.502 368.214 294.58C363.644 296.658 358.331 293.357 356.206 287.246C354.081 281.134 355.993 274.534 360.563 272.456C365.026 270.378 370.446 273.678 372.571 279.79Z" fill="#FA8861"/>
<path d="M360.457 279.912C360.457 279.912 363.645 274.411 367.47 280.401" stroke="#693E28" stroke-miterlimit="10" stroke-linecap="round"/>
<path d="M420.604 281.134C418.478 287.246 420.391 293.846 424.96 295.924C429.53 298.002 434.843 294.702 436.969 288.59C439.094 282.479 437.181 275.878 432.612 273.8C428.042 271.722 422.729 275.022 420.604 281.134Z" fill="#FA8861"/>
<path d="M432.718 281.256C432.718 281.256 429.53 275.756 425.704 281.745" stroke="#693E28" stroke-miterlimit="10" stroke-linecap="round"/>
<path d="M397.543 280.89C397.543 280.89 399.563 286.023 399.031 289.69C398.925 290.546 398.394 292.624 394.355 291.279" stroke="#693E28" stroke-miterlimit="10" stroke-linecap="round"/>
<path d="M389.999 297.513C389.999 297.513 395.949 305.825 403.494 296.291" stroke="#693E28" stroke-miterlimit="10" stroke-linecap="round"/>
<path d="M380.966 282.112C380.753 280.034 381.603 278.078 382.879 277.956C384.154 277.834 385.323 279.423 385.535 281.501" stroke="#693E28" stroke-miterlimit="10" stroke-linecap="round"/>
<path d="M407.851 281.99C407.745 279.912 408.701 278.078 409.977 277.956C411.252 277.834 412.315 279.545 412.527 281.623" stroke="#693E28" stroke-miterlimit="10" stroke-linecap="round"/>
<path d="M411.89 269.889C411.571 271.356 409.233 271.967 406.789 271.233C404.345 270.5 402.538 268.666 402.963 267.2C403.282 265.733 405.62 265.122 408.064 265.855C410.508 266.588 412.315 268.422 411.89 269.889Z" fill="#693E28"/>
<path d="M385.535 268.666C385.748 270.133 383.835 271.722 381.391 272.211C378.841 272.7 376.609 271.844 376.397 270.378C376.184 268.911 378.097 267.322 380.541 266.833C383.198 266.344 385.323 267.077 385.535 268.666Z" fill="#693E28"/>
<path d="M362.794 326.116L328.577 418.034L264.179 398.233L278.419 367.797C292.127 338.461 319.863 321.471 348.661 324.649L362.794 326.116Z" fill="#FA8861"/>
<path d="M392.762 331.372L335.165 420.112L328.577 418.034L293.509 414.245L260.247 397.01L284.582 355.818C301.266 327.582 331.446 314.259 360.35 322.326L392.762 331.372Z" fill="#E66250"/>
<path d="M412.421 422.19L413.696 467.783L413.484 467.905C408.595 470.961 403.282 472.305 397.862 472.183L379.372 462.282L379.797 412.656L411.146 417.301C411.465 418.156 411.783 419.134 411.996 420.112L412.421 422.19Z" fill="#FA8861"/>
<path d="M516.987 401.288L456.097 417.179L436.331 326.971L450.465 323.915C476.925 318.048 502.641 336.994 509.336 366.941L516.987 401.288Z" fill="#FA8861"/>
<path d="M524.001 399.455L517.306 402.389L511.674 404.833C499.135 410.334 485.958 413.878 472.568 415.345L456.203 417.056L450.677 418.523L418.159 331.861L442.388 323.671C472.037 313.648 503.492 332.105 513.799 365.597L524.001 399.455Z" fill="#E66250"/>
<path d="M445.789 370.119V508.486C445.789 510.808 444.195 512.764 442.069 512.764H352.805C349.405 512.764 346.111 511.297 343.454 508.853L342.072 507.508C340.372 505.797 339.416 503.475 339.416 500.908V361.93C339.416 359.729 341.01 358.018 342.816 358.018H433.993C436.012 358.018 437.712 359.974 437.712 362.296V365.963H441.963C442.069 365.963 442.176 365.963 442.282 365.963C444.407 366.086 445.789 367.919 445.789 370.119Z" fill="#92DED7"/>
<path d="M438.881 362.296C438.244 361.441 437.287 360.952 436.225 360.952H346.111C344.835 360.952 344.304 362.663 345.26 363.641L345.898 364.252C346.961 365.23 348.236 365.841 349.617 365.841H437.819H439.944H442.176C442.282 365.841 442.388 365.841 442.494 365.841L438.881 362.296Z" fill="white"/>
<path d="M382.773 306.803C382.773 306.803 385.642 322.449 368.958 324.404C368.958 324.404 395.1 354.962 429.424 328.194C429.424 328.194 409.339 325.016 411.996 307.047L382.773 306.803Z" fill="#FA8861"/>
<path d="M382.879 311.937C382.879 311.937 397.012 322.449 411.783 310.837C411.783 310.837 406.258 326.116 396.375 324.771C386.492 323.426 382.879 311.937 382.879 311.937Z" fill="#693E28"/>
<path d="M368.214 273.434C368.214 273.434 377.672 271.233 379.797 256.688C379.797 256.688 393.505 261.577 398.819 248.865C404.238 236.275 358.863 242.631 368.214 273.434Z" fill="#693E28"/>
<path d="M396.906 247.154C396.906 247.154 398.5 262.31 418.372 264.633C418.372 264.633 415.609 272.7 425.067 274.778C425.067 274.778 430.699 249.843 411.252 244.831C391.911 239.942 396.906 247.154 396.906 247.154Z" fill="#693E28"/>
<path d="M398.819 246.176C398.819 246.176 396.693 268.178 377.247 257.788" stroke="#693E28" stroke-miterlimit="10" stroke-linecap="round"/>
<path d="M333.252 402.877L326.77 419.257" stroke="#693E28" stroke-miterlimit="10" stroke-linecap="round"/>
<path d="M456.097 417.179L453.971 400.188" stroke="#693E28" stroke-miterlimit="10" stroke-linecap="round"/>
<path d="M423.048 395.177H365.451V481.473H423.048V395.177Z" stroke="#50ADA7" stroke-miterlimit="10" stroke-linecap="round"/>
<path d="M394.674 495.285L387.767 538.922L301.479 523.276C292.233 520.587 283.838 515.942 276.612 509.831C272.043 505.919 268.005 501.397 264.604 496.385C252.383 478.784 247.814 455.682 251.427 433.436C252.702 425.49 255.04 417.79 258.547 410.456L263.86 398.599L279.269 405.689C289.683 410.945 300.628 414.367 311.999 415.834L328.789 418.034L320.607 440.036L394.674 495.285Z" fill="#FA8861"/>
<path d="M363.645 534.888C363.645 534.888 387.873 547.6 397.862 548.945C407.851 550.29 414.865 543.2 414.865 543.2C414.865 543.2 419.647 541.122 422.623 535.499C422.623 535.499 432.187 533.177 431.018 524.132C431.018 524.132 437.606 522.054 436.969 512.886L408.064 507.508L423.154 503.108C425.173 502.497 426.554 500.419 426.448 497.974C426.342 495.652 424.96 493.696 423.048 493.207L390.211 484.651C387.873 484.04 385.535 484.651 383.623 486.362L371.721 497.119L363.645 534.888Z" fill="#FA8861"/>
<path d="M408.064 507.508L400.732 508.364" stroke="#693E28" stroke-miterlimit="10" stroke-linecap="round"/>
<path d="M431.018 524.376C430.486 524.376 414.228 525.599 414.228 525.599" stroke="#693E28" stroke-miterlimit="10" stroke-linecap="round"/>
<path d="M423.048 535.377L409.871 536.844" stroke="#693E28" stroke-miterlimit="10" stroke-linecap="round"/>
<path d="M414.228 543.567L409.764 544.789" stroke="#693E28" stroke-miterlimit="10" stroke-linecap="round"/>
<path d="M309.023 438.447C309.023 438.447 316.887 436.858 320.394 440.036" stroke="#693E28" stroke-miterlimit="10" stroke-linecap="round"/>
<path d="M280.65 467.294C280.65 479.517 274.168 490.274 264.498 496.385C252.277 478.784 247.708 455.682 251.321 433.436C267.898 435.88 280.65 450.059 280.65 467.294Z" fill="#F77C52"/>
<path d="M516.775 499.563C512.63 504.33 507.636 508.119 502.429 510.564C497.222 513.009 491.696 514.231 486.17 514.231C480.006 514.231 473.843 512.764 467.998 509.586L397.862 472.183C403.176 472.428 408.595 470.961 413.484 467.905L413.696 467.783L412.421 422.19L411.89 420.112C411.677 419.134 411.358 418.279 411.039 417.301L457.584 424.146L455.99 417.056L472.355 415.345C485.745 413.878 498.922 410.334 511.461 404.833L517.094 402.389L528.039 451.893C528.464 454.093 528.889 456.171 529.102 458.371C530.802 473.528 526.232 488.685 516.775 499.563Z" fill="#FA8861"/>
<path d="M413.696 467.905L413.484 468.027C408.595 471.083 403.282 472.428 397.862 472.305C393.718 472.183 389.574 470.961 385.748 468.761L360.031 454.337C358.969 453.726 358.225 452.504 358.225 451.037V450.792C358.331 448.959 359.606 447.492 361.094 447.37L371.296 446.392L355.781 441.136C354.506 440.647 353.655 439.425 353.655 437.836V437.591C353.762 435.88 354.931 434.536 356.418 434.413L371.508 433.435C371.508 433.435 357.481 429.646 351.211 427.935C349.617 427.446 348.555 425.857 348.555 424.024C348.555 423.901 348.555 423.779 348.555 423.657C348.767 421.701 350.149 420.234 351.849 420.112L370.658 419.379L353.762 413.756C352.487 413.389 351.636 412.045 351.636 410.578C351.636 408.867 352.805 407.522 354.293 407.4L366.089 406.055C370.021 405.567 374.059 406.055 377.884 407.278L386.173 409.845L380.328 403C376.184 396.888 377.353 391.999 378.628 389.432C379.266 388.21 380.541 387.843 381.604 388.698L400.732 403.489C405.407 406.667 409.02 411.556 410.933 417.301C411.252 418.156 411.571 419.134 411.783 420.112L412.315 422.19L413.696 467.905Z" fill="#FA8861"/>
<path d="M369.489 419.501L381.604 422.19" stroke="#693E28" stroke-miterlimit="10" stroke-linecap="round"/>
<path d="M370.446 433.436L376.609 435.636" stroke="#693E28" stroke-miterlimit="10" stroke-linecap="round"/>
<path d="M369.702 446.637L377.565 448.226" stroke="#693E28" stroke-miterlimit="10" stroke-linecap="round"/>
<path d="M385.748 409.356L388.83 412.9" stroke="#693E28" stroke-miterlimit="10" stroke-linecap="round"/>
<path d="M457.691 424.268C457.691 424.268 467.467 425.368 475.969 435.636" stroke="#693E28" stroke-miterlimit="10" stroke-linecap="round"/>
<path d="M516.775 499.563C512.631 504.33 507.636 508.119 502.429 510.564C499.241 505.308 497.328 499.196 497.328 492.596C497.328 474.506 511.355 459.593 529.208 458.493C530.802 473.528 526.233 488.685 516.775 499.563Z" fill="#F77C52"/>
<path d="M270.98 379.531C270.98 379.531 274.487 376.964 279.163 379.653C283.413 382.098 282.138 390.532 282.351 390.776C283.094 391.265 296.484 378.92 298.609 398.599C298.716 399.822 310.617 386.621 313.912 403.122C314.018 403.489 326.664 393.955 329.745 408.378" stroke="white" stroke-miterlimit="10" stroke-linecap="round"/>
<path d="M518.475 386.743C518.475 386.743 513.056 381.731 506.892 383.443C501.26 385.032 497.753 394.932 498.072 394.688C498.178 394.566 491.696 388.087 485.851 388.576C474.906 389.554 471.824 402.022 471.293 401.9C470.761 401.777 464.598 387.476 456.203 402.144" stroke="white" stroke-miterlimit="10" stroke-linecap="round"/>
<path d="M490.739 541.978L487.339 516.676" stroke="#693E28" stroke-miterlimit="10" stroke-linecap="round"/>
<path d="M411.146 415.345L395.737 472.916L409.233 478.539L426.023 419.379L411.146 415.345Z" fill="white"/>
<path d="M412.952 457.76C420.171 457.76 426.023 451.193 426.023 443.092C426.023 434.991 420.171 428.424 412.952 428.424C405.734 428.424 399.882 434.991 399.882 443.092C399.882 451.193 405.734 457.76 412.952 457.76Z" fill="#693E28"/>
<path d="M426.554 256.321C427.511 258.154 425.598 261.699 422.091 264.144C418.584 266.588 415.078 267.2 414.015 265.366C413.058 263.533 414.971 259.988 418.478 257.543C421.985 255.099 425.598 254.61 426.554 256.321Z" fill="white"/>
<path d="M419.966 257.177C419.966 260.232 422.197 262.799 424.854 262.799C427.511 262.799 429.742 260.232 429.742 257.177C429.742 254.121 427.511 251.554 424.854 251.554C422.197 251.554 419.966 254.121 419.966 257.177Z" fill="#E66250"/>
<path d="M299.778 575.103C299.778 575.103 328.258 578.281 336.015 558.479" stroke="#4C2D1D" stroke-miterlimit="10" stroke-linecap="round"/>
<path d="M464.173 557.135C464.173 557.135 474.162 575.714 494.246 569.358" stroke="#4C2D1D" stroke-miterlimit="10" stroke-linecap="round"/>
<path d="M409.446 434.291L412.952 443.092L421.454 440.281" stroke="#4C2D1D" stroke-miterlimit="10" stroke-linecap="round"/>
</g>
</svg>
